# xmcd
#
# Track frame offsets:
#	150
#	12287
#	21912
#	34030
#	44942
#	52690
#	62989
#	77940
#	92760
#	109000
#	120007
#	139770
#
# Disc length: 2029
#
# Revision: 1
# Processed by: cddbd v1.5.1PL0 Copyright (c) Steve Scherf et al.
# Submitted via: EasyCDDAExtractor 4.6.0.1
# Normalized: r0:TDELIM( - )
#
DISCID=9807eb0c
DTITLE=Various Artist - Christmas In The Country
DYEAR=1900
DGENRE=
TTITLE0=Merry Christmas To You From Me - Marty Robins
TTITLE1=Lynn Anderson - Soon It Will Be Chistmas Day
TTITLE2=Tammy Wynette - White Christmas
TTITLE3=Johnny Cash - Blue Christmas
TTITLE4=Ray Price - Jingle Bells
TTITLE5=Merle Haggard - Santa Claus Is Coming To Town
TTITLE6=Jimmy Dean - Have Yourself A Merry Little Christmas
TTITLE7=Mickey Gilley - I'll Be Home For Christmas
TTITLE8=Willie Nelson - The First Noel
TTITLE9=Willie Nelson - Pretty Paper
TTITLE10=Charlie Daniels - The Christmas Song
TTITLE11=Chet Atkins - East Tennessee Christmas
EXTD=
EXTT0=
EXTT1=
EXTT2=
EXTT3=
EXTT4=
EXTT5=
EXTT6=
EXTT7=
EXTT8=
EXTT9=
EXTT10=
EXTT11=
PLAYORDER=
